<?xml version="1.0" encoding="UTF-8" standalone="no"?>
<!-- Created with Inkscape (http://www.inkscape.org/) -->

<svg
   xmlns:dc="http://purl.org/dc/elements/1.1/"
   xmlns:cc="http://creativecommons.org/ns#"
   xmlns:rdf="http://www.w3.org/1999/02/22-rdf-syntax-ns#"
   xmlns:svg="http://www.w3.org/2000/svg"
   xmlns="http://www.w3.org/2000/svg"
   xmlns:sodipodi="http://sodipodi.sourceforge.net/DTD/sodipodi-0.dtd"
   xmlns:inkscape="http://www.inkscape.org/namespaces/inkscape"
   id="svg2"
   version="1.1"
   inkscape:version="0.91 r13725"
   width="3677.5"
   height="1205"
   viewBox="0 0 3677.5 1205"
   sodipodi:docname="emilyyu-signature.svg">
  <metadata
     id="metadata8">
    <rdf:RDF>
      <cc:Work
         rdf:about="">
        <dc:format>image/svg+xml</dc:format>
        <dc:type
           rdf:resource="http://purl.org/dc/dcmitype/StillImage" />
        <dc:title></dc:title>
      </cc:Work>
    </rdf:RDF>
  </metadata>
  <defs
     id="defs6" />
  <sodipodi:namedview
     pagecolor="#ffffff"
     bordercolor="#666666"
     borderopacity="1"
     objecttolerance="10"
     gridtolerance="10"
     guidetolerance="10"
     inkscape:pageopacity="0"
     inkscape:pageshadow="2"
     inkscape:window-width="1920"
     inkscape:window-height="1027"
     id="namedview4"
     showgrid="false"
     inkscape:zoom="0.22150565"
     inkscape:cx="871.19319"
     inkscape:cy="734.96217"
     inkscape:window-x="-8"
     inkscape:window-y="-8"
     inkscape:window-maximized="1"
     inkscape:current-layer="layer2" />
  <g
     inkscape:groupmode="layer"
     id="layer2"
     inkscape:label="svg"
     style="display:inline">
    <path
       id="path3349"
       style="fill:#000000;fill-opacity:1;fill-rule:evenodd;stroke:#000000;stroke-width:1.06459069px;stroke-linecap:butt;stroke-linejoin:miter;stroke-opacity:1"
       d="m 3672.5604,563.0863 c 0,14.45661 -11.7059,26.18312 -26.1625,26.20853 -14.4566,0.0254 -22.1861,-15.48019 -24.2794,-29.78443 -3.4369,-23.4856 11.6137,-30.17433 26.0701,-26.30038 13.9639,3.74198 24.2694,15.23569 24.3711,29.69194 M 2017.0195,1189.3226 c -9.7291,-18.6297 -5.5974,-94.1083 -2.0371,-146.6923 12.4225,-183.47679 27.0627,-487.69436 36.7137,-672.92052 2.1361,-40.9983 49.9795,-80.96023 47.8915,-3.11459 -3.8488,143.49299 -18.2981,278.04564 -24.4432,448.68834 -6.2646,173.95848 -19.1201,320.26427 -23.8911,369.53157 -1.6857,17.4072 -27.6229,17.1662 -34.2338,4.5075 z M 2740.625,931.2475 c -27.7867,-209.74301 -3.9622,-342.65812 -99.0895,-442.59555 -27.0569,-26.35143 -65.9331,-39.26596 -81.0422,-80.43314 -17.1306,-46.67508 -56.3642,-207.93863 -75.2218,-318.804727 -6.745,-39.6544 46.6387,-21.2465 55.9785,28.206887 17.8759,94.65117 38.6027,178.32346 69.7327,268.44699 10.187,29.49218 77.4873,3.11849 99.6138,-19.46237 43.8707,-44.77168 100.3759,-101.46286 173.588,-202.8708 31.0419,-42.99695 76.929,-5.51674 38.4726,33.76521 -77.0269,78.68039 -142.6993,166.27628 -218.6002,245.59163 68.7633,75.90119 77.0819,260.04127 82.1997,467.12552 0.7632,30.88189 -42.1439,47.35684 -45.6316,21.03035 z M 451.16508,829.10389 C 312.84148,778.83826 339.92915,645.1051 340.09109,614.34567 242.69454,634.15798 130.24893,660.44625 33.341365,677.32044 8.1346272,681.70961 -5.5680802,637.34161 26.829923,629.82897 114.80713,609.42828 261.65166,585.30682 347.71522,560.94637 370.02621,460.8712 394.8727,351.75882 427.63046,256.13339 c 10.73078,-31.32496 49.58109,-7.78621 28.75953,62.28071 -21.34683,71.83453 -39.89391,156.02847 -53.38507,232.35961 107.85073,-16.11539 326.2485,-76.04434 345.68146,-74.21329 30.71115,2.89372 4.23891,48.54042 -29.43311,56.58737 -136.7276,32.67522 -220.53192,53.96621 -326.44077,74.7322 -24.64461,74.04096 4.59102,171.56145 112.39603,187.17006 134.44769,19.46608 271.89735,-46.10872 361.21461,-132.64271 35.32904,22.65281 20.41924,51.65179 -9.86064,73.92112 -135.57702,99.7101 -310.64618,127.20723 -405.39742,92.77543 z M 893.28567,460.30068 c 76.55001,-48.65241 83.16345,166.29098 83.10204,241.66014 34.91559,-67.0999 87.70839,-207.4726 146.67029,-208.31764 67.2825,-0.96429 86.3707,111.49206 93.0201,173.4273 45.0114,-51.24379 68.9793,-121.36482 125.5535,-166.17249 48.6891,-36.03355 74.1425,-4.21594 75.2935,33.69936 1.8987,62.54588 13.5548,109.30837 32.1029,162.13809 -46.2544,23.8805 -77.1654,-61.34822 -74.6084,-106.44165 4.0053,-70.63293 -26.964,-36.79729 -47.1002,-4.89239 -31.3435,49.66236 -65.2002,107.4274 -91.7647,167.27209 -19.1206,43.07515 -76.7497,32.31152 -77.0744,-7.36062 -0.3708,-45.31203 8.3347,-199.43906 -34.961,-197.22742 -34.6611,1.77056 -93.7394,155.08382 -112.6382,202.51202 -21.36187,53.60955 -77.44466,59.42338 -77.94757,-1.38328 -0.60527,-73.1837 -7.25465,-214.52589 -39.64786,-288.91351 z m 631.12073,295.12844 c -10.1837,-39.03391 -20.8781,-113.38151 -21.4757,-172.89669 -0.438,-43.62928 39.5669,-56.68306 39.809,3.20352 0.3068,75.90534 20.5087,149.4456 24.6614,184.00303 -13.1795,9.15733 -37.1671,8.02743 -42.9947,-14.30986 z m 161.1871,-65.65642 c -11.2903,-220.04267 1.9464,-404.1827 17.8442,-625.752811 5.5024,-76.687215 52.4006,-52.025627 45.8585,2.029963 -21.2673,175.727178 -26.1682,381.613788 -21.4114,560.124348 1.3383,50.2219 -2.6104,61.71491 34.7419,51.49669 -6.862,115.62234 -72.3774,102.84131 -77.0332,12.10181 z m 1381.5268,63.18093 c -92.0116,3.06192 -88.2103,-105.10614 -87.458,-170.01607 0.4163,-35.91552 8.5196,-125.64404 45.3375,-119.04514 23.6524,1.98407 0.5098,46.55356 -2.1973,122.71473 -1.1981,33.70998 -5.4984,109.46304 40.9471,102.78348 41.5317,-5.97288 121.1267,-109.86163 165.5615,-178.19033 12.0171,-18.47904 31.6579,-49.25075 38.7476,-70.98358 4.2488,-13.02427 31.173,2.66473 44.9185,17.2408 3.9022,48.78856 3.9969,110.90221 14.9913,157.3681 11.2937,42.23329 24.3797,68.36128 45.5491,86.38959 -33.267,48.725 -67.6863,32.7792 -91.621,-42.9345 -12.3575,-37.76079 -13.9064,-77.28721 -21.897,-106.0675 -21.8049,19.45623 -120.2794,154.76258 -145.6891,177.64614 -12.4136,11.17953 -32.221,22.59614 -47.1902,23.09428 z m -1197.718,-95.97522 c -27.341,-47.8582 -29.137,-103.18564 -30.0538,-131.51462 -2.8147,-86.96598 41.0235,-174.66474 52.5577,-130.11584 7.5563,29.18464 -26.9274,132.75022 11.1525,225.87706 77.5733,-48.39913 41.2218,40.50092 4.6409,57.50137 -8.0913,3.76031 -29.8172,-6.90428 -38.2973,-21.74797 z m -319.908,-308.79412 c -18.7792,14.09271 -67.4586,-58.06019 -35.4036,-79.21473 30.8139,-20.3355 64.4244,57.43629 35.4036,79.21473 z M 499.6216,150.06584 c 81.68999,-12.03115 346.83224,-77.199321 469.58192,-99.434675 70.67278,-12.801941 96.23758,64.923865 26.70376,54.663135 -38.13311,-5.62709 -95.418,-1.56531 -154.03208,12.9911 -138.26428,34.33699 -307.11175,74.87825 -385.155,90.19797 -25.132,4.93336 -78.74846,16.99041 -84.6504,-4.33446 -8.80878,-31.82784 63.02614,-44.57985 127.5518,-54.08307 z"
       inkscape:connector-curvature="0"
       sodipodi:nodetypes="cssscsssssssscssssssscssscsscsscsscscssccsccscssssssscssscssssscssscsscscccccssssscssssssssssss" />
  </g>
</svg>
